<?xml version="1.0" encoding="UTF-8"?>
<svg width="219" height="47.4" version="1.1" xmlns="http://www.w3.org/2000/svg">
 <rect width="219" height="47.4" fill="#004980" stroke-width="30.1" style="paint-order:stroke markers fill"/>
 <g fill="#fff">
  <g transform="matrix(4.28 0 0 4.28 69.6 4)">
   <path transform="translate(0 .17)" d="m5.46 4.23h-0.25c-0.1 1.02-0.24 2.26-2 2.26h-0.81c-0.47 0-0.49-0.07-0.49-0.4v-5.31c0-0.34 0-0.48 0.94-0.48h0.33v-0.3c-0.36 0.03-1.26 0.03-1.67 0.03-0.39 0-1.17 0-1.51-0.03v0.3h0.23c0.77 0 0.79 0.11 0.79 0.47v5.25c0 0.36-0.02 0.47-0.79 0.47h-0.23v0.31h5.19l0.27-2.57z"/>
   <path transform="translate(2.48)" d="m2.81 0.16c-0.04-0.12-0.06-0.16-0.19-0.16s-0.16 0.04-0.2 0.16l-1.61 4.08c-0.07 0.17-0.19 0.48-0.81 0.48v0.25h1.55v-0.25c-0.31 0-0.5-0.14-0.5-0.34 0-0.05 0.01-0.07 0.03-0.14 0 0 0.34-0.86 0.34-0.86h1.98l0.4 1.02c0.02 0.04 0.04 0.09 0.04 0.12 0 0.2-0.38 0.2-0.57 0.2v0.25h1.97v-0.25h-0.14c-0.47 0-0.52-0.07-0.59-0.27 0 0-1.7-4.29-1.7-4.29zm-0.4 0.71 0.89 2.26h-1.78l0.89-2.26z"/>
   <path transform="translate(7.03 .23)" d="m6.27 0h-6.09s-0.18 2.24-0.18 2.24h0.24c0.14-1.61 0.29-1.94 1.8-1.94 0.18 0 0.44 0 0.54 0.02 0.21 0.04 0.21 0.15 0.21 0.38v5.25c0 0.34 0 0.48-1.05 0.48h-0.4v0.31c0.41-0.03 1.42-0.03 1.88-0.03s1.49 0 1.9 0.03v-0.31h-0.4c-1.05 0-1.05-0.14-1.05-0.48v-5.25c0-0.2 0-0.34 0.18-0.38 0.11-0.02 0.38-0.02 0.57-0.02 1.5 0 1.65 0.33 1.79 1.94h0.25s-0.19-2.24-0.19-2.24z"/>
   <path transform="translate(12.5,2.45)" d="m6.16 4.2h-0.25c-0.25 1.53-0.48 2.26-2.19 2.26h-1.32c-0.47 0-0.49-0.07-0.49-0.4v-2.66h0.89c0.97 0 1.08 0.32 1.08 1.17h0.25v-2.64h-0.25c0 0.85-0.11 1.16-1.08 1.16h-0.89v-2.39c0-0.33 0.02-0.4 0.49-0.4h1.28c1.53 0 1.79 0.55 1.95 1.94h0.25l-0.28-2.24h-5.6v0.3h0.23c0.77 0 0.79 0.11 0.79 0.47v5.22c0 0.36-0.02 0.47-0.79 0.47h-0.23v0.31h5.74l0.42-2.57z"/>
   <path transform="translate(17.9 .17)" d="m3.76 2.95 1.37-2c0.21-0.32 0.55-0.64 1.44-0.65v-0.3h-2.38v0.3c0.4 0.01 0.62 0.23 0.62 0.46 0 0.1-0.02 0.12-0.09 0.23 0 0-1.14 1.68-1.14 1.68l-1.28-1.92c-0.02-0.03-0.07-0.11-0.07-0.15 0-0.12 0.22-0.29 0.64-0.3v-0.3c-0.34 0.03-1.07 0.03-1.45 0.03-0.31 0-0.93-0.01-1.3-0.03v0.3h0.19c0.55 0 0.74 0.07 0.93 0.35 0 0 1.83 2.77 1.83 2.77l-1.63 2.41c-0.14 0.2-0.44 0.66-1.44 0.66v0.31h2.38v-0.31c-0.46-0.01-0.63-0.28-0.63-0.46 0-0.09 0.03-0.13 0.1-0.24l1.41-2.09 1.58 2.38c0.02 0.04 0.05 0.08 0.05 0.11 0 0.12-0.22 0.29-0.65 0.3v0.31c0.35-0.03 1.08-0.03 1.45-0.03 0.42 0 0.88 0.01 1.3 0.03v-0.31h-0.19c-0.52 0-0.73-0.05-0.94-0.36 0 0-2.1-3.18-2.1-3.18z"/>
  </g>
  <path d="m183 32.5h36.4v1.29h-36.4z" stroke-width=".806"/>
  <path d="m0 32.4h63.1v1.29h-63.1z" stroke-width="1.06"/>
 </g>
 <g font-family="sans-serif" letter-spacing="0px" word-spacing="0px">
  <text x="175.31392" y="25.245981" fill="#ffffff" font-size="24px" style="line-height:1.25" xml:space="preserve"><tspan x="175.31392" y="25.245981" fill="#ffffff" font-family="'CMU Serif'" font-size="24px">.org</tspan></text>
  <text x="36.850979" y="23.410486" fill="#000000" font-size="192px" style="line-height:1.25" xml:space="preserve"><tspan x="36.850979" y="23.410486"/></text>
  <text x="3.2053099" y="25.214844" fill="#ffffff" font-size="24px" style="line-height:1.25" xml:space="preserve"><tspan x="3.2053099" y="25.214844" fill="#ffffff" font-family="'CMU Serif'" font-size="24px">Learn</tspan></text>
 </g>
</svg>
