<?xml version="1.0" encoding="UTF-8"?>
<svg width="219" height="39.4" version="1.1" xmlns="http://www.w3.org/2000/svg">
 <g>
  <g transform="matrix(4.28 0 0 4.28 69.6 0)">
   <path transform="translate(0 .17)" d="m5.46 4.23h-0.25c-0.1 1.02-0.24 2.26-2 2.26h-0.81c-0.47 0-0.49-0.07-0.49-0.4v-5.31c0-0.34 0-0.48 0.94-0.48h0.33v-0.3c-0.36 0.03-1.26 0.03-1.67 0.03-0.39 0-1.17 0-1.51-0.03v0.3h0.23c0.77 0 0.79 0.11 0.79 0.47v5.25c0 0.36-0.02 0.47-0.79 0.47h-0.23v0.31h5.19l0.27-2.57z"/>
   <path transform="translate(2.48)" d="m2.81 0.16c-0.04-0.12-0.06-0.16-0.19-0.16s-0.16 0.04-0.2 0.16l-1.61 4.08c-0.07 0.17-0.19 0.48-0.81 0.48v0.25h1.55v-0.25c-0.31 0-0.5-0.14-0.5-0.34 0-0.05 0.01-0.07 0.03-0.14 0 0 0.34-0.86 0.34-0.86h1.98l0.4 1.02c0.02 0.04 0.04 0.09 0.04 0.12 0 0.2-0.38 0.2-0.57 0.2v0.25h1.97v-0.25h-0.14c-0.47 0-0.52-0.07-0.59-0.27 0 0-1.7-4.29-1.7-4.29zm-0.4 0.71 0.89 2.26h-1.78l0.89-2.26z"/>
   <path transform="translate(7.03 .23)" d="m6.27 0h-6.09s-0.18 2.24-0.18 2.24h0.24c0.14-1.61 0.29-1.94 1.8-1.94 0.18 0 0.44 0 0.54 0.02 0.21 0.04 0.21 0.15 0.21 0.38v5.25c0 0.34 0 0.48-1.05 0.48h-0.4v0.31c0.41-0.03 1.42-0.03 1.88-0.03s1.49 0 1.9 0.03v-0.31h-0.4c-1.05 0-1.05-0.14-1.05-0.48v-5.25c0-0.2 0-0.34 0.18-0.38 0.11-0.02 0.38-0.02 0.57-0.02 1.5 0 1.65 0.33 1.79 1.94h0.25s-0.19-2.24-0.19-2.24z"/>
   <path transform="translate(12.5,2.45)" d="m6.16 4.2h-0.25c-0.25 1.53-0.48 2.26-2.19 2.26h-1.32c-0.47 0-0.49-0.07-0.49-0.4v-2.66h0.89c0.97 0 1.08 0.32 1.08 1.17h0.25v-2.64h-0.25c0 0.85-0.11 1.16-1.08 1.16h-0.89v-2.39c0-0.33 0.02-0.4 0.49-0.4h1.28c1.53 0 1.79 0.55 1.95 1.94h0.25l-0.28-2.24h-5.6v0.3h0.23c0.77 0 0.79 0.11 0.79 0.47v5.22c0 0.36-0.02 0.47-0.79 0.47h-0.23v0.31h5.74l0.42-2.57z"/>
   <path transform="translate(17.9 .17)" d="m3.76 2.95 1.37-2c0.21-0.32 0.55-0.64 1.44-0.65v-0.3h-2.38v0.3c0.4 0.01 0.62 0.23 0.62 0.46 0 0.1-0.02 0.12-0.09 0.23 0 0-1.14 1.68-1.14 1.68l-1.28-1.92c-0.02-0.03-0.07-0.11-0.07-0.15 0-0.12 0.22-0.29 0.64-0.3v-0.3c-0.34 0.03-1.07 0.03-1.45 0.03-0.31 0-0.93-0.01-1.3-0.03v0.3h0.19c0.55 0 0.74 0.07 0.93 0.35 0 0 1.83 2.77 1.83 2.77l-1.63 2.41c-0.14 0.2-0.44 0.66-1.44 0.66v0.31h2.38v-0.31c-0.46-0.01-0.63-0.28-0.63-0.46 0-0.09 0.03-0.13 0.1-0.24l1.41-2.09 1.58 2.38c0.02 0.04 0.05 0.08 0.05 0.11 0 0.12-0.22 0.29-0.65 0.3v0.31c0.35-0.03 1.08-0.03 1.45-0.03 0.42 0 0.88 0.01 1.3 0.03v-0.31h-0.19c-0.52 0-0.73-0.05-0.94-0.36 0 0-2.1-3.18-2.1-3.18z"/>
  </g>
  <path d="m183 28.5h36.4v1.29h-36.4z" stroke-width=".806"/>
  <path d="m0 28.4h63.1v1.29h-63.1z" stroke-width="1.06"/>
  <g aria-label=".org">
   <path d="m178 20.9q-0.363-0.387-0.363-0.891 0-0.504 0.363-0.867 0.363-0.375 0.914-0.375 0.527 0 0.879 0.352 0.363 0.34 0.363 0.902 0 0.551-0.387 0.914-0.375 0.352-0.855 0.352-0.551 0-0.914-0.387z"/>
   <path d="m184 20q-1.58-1.57-1.58-3.84 0-2.29 1.55-3.95 1.56-1.68 3.79-1.68 2.18 0 3.74 1.66 1.57 1.65 1.57 3.96 0 2.26-1.58 3.83-1.57 1.57-3.75 1.57-2.13 0-3.73-1.56zm0.41-4.04q0 2.33 0.609 3.39 0.938 1.61 2.73 1.61 0.891 0 1.63-0.48 0.75-0.48 1.16-1.29 0.527-1.05 0.527-3.22 0-2.31-0.633-3.33-0.938-1.56-2.71-1.56-0.773 0-1.54 0.41-0.75 0.398-1.21 1.2-0.574 1.05-0.574 3.28z"/>
   <path d="m195 21.2v-0.738q1.28 0 1.57-0.152 0.305-0.164 0.305-0.938v-6.43q0-0.891-0.316-1.11-0.305-0.223-1.56-0.223v-0.75l3.34-0.258v2.64q0.34-1.03 1.05-1.83 0.727-0.809 1.9-0.809 0.773 0 1.27 0.434 0.504 0.434 0.504 1.03 0 0.527-0.328 0.797-0.316 0.258-0.703 0.258-0.434 0-0.738-0.27-0.293-0.281-0.293-0.762 0-0.293 0.129-0.516 0.141-0.234 0.246-0.316 0.105-0.082 0.176-0.105-0.0469-0.0234-0.258-0.0234-1.32 0-2.09 1.32-0.75 1.31-0.75 3.19v3.69q0 0.691 0.281 0.914 0.293 0.223 1.55 0.223h0.504v0.738q-0.961-0.0703-3.05-0.0703-0.293 0-0.75 0.0117-0.457 0.0117-1.05 0.0352-0.598 0.0234-0.938 0.0234z"/>
   <path d="m204 23.1q0-0.773 0.586-1.44 0.598-0.668 1.63-0.961-1.05-0.668-1.05-2.13 0-1.12 0.738-1.99-1.12-0.938-1.12-2.47 0-1.42 1.12-2.46t2.77-1.04q1.44 0 2.54 0.867 1.15-1.12 2.54-1.14 0.621 0 0.914 0.387 0.305 0.387 0.305 0.797 0 0.363-0.234 0.539-0.223 0.176-0.457 0.176-0.293 0-0.504-0.188-0.199-0.199-0.199-0.504 0-0.504 0.387-0.656-0.0703-0.0234-0.234-0.0234-1.17 0-2.17 0.938 0.984 0.914 0.984 2.33t-1.12 2.46q-1.12 1.04-2.75 1.04-1.35 0-2.38-0.75-0.41 0.48-0.41 1.14 0 0.598 0.363 1.07t0.914 0.539q0.164 0.0234 1.79 0.0234 0.961 0 1.49 0.0234t1.28 0.188q0.762 0.152 1.36 0.457 1.56 0.867 1.57 2.74 0 1.37-1.58 2.23-1.57 0.867-3.75 0.867-2.2 0-3.76-0.879-1.55-0.867-1.55-2.17zm1.25 0q0 0.984 1.16 1.73 1.16 0.762 2.92 0.762 1.72 0 2.88-0.75 1.17-0.738 1.17-1.75 0-0.715-0.41-1.17-0.41-0.457-1.25-0.645-0.832-0.176-1.42-0.211-0.586-0.0352-1.66-0.0352h-1.42q-0.82 0.0469-1.39 0.645-0.574 0.598-0.574 1.42zm1.31-8.98q0 2.95 2.1 2.95 1.05 0 1.7-0.961 0.387-0.645 0.387-2.02 0-2.95-2.09-2.95-1.05 0-1.71 0.961-0.387 0.645-0.387 2.02z"/>
  </g>
 </g>
 <text x="36.850979" y="19.410486" fill="#000000" font-family="sans-serif" font-size="192px" letter-spacing="0px" word-spacing="0px" style="line-height:1.25" xml:space="preserve"><tspan x="36.850979" y="19.410486"/></text>
 <g aria-label="Learn">
  <path d="m4 21.2v-0.738h0.574q1.3 0 1.59-0.211 0.305-0.223 0.305-0.926v-12.6q0-0.691-0.305-0.902-0.305-0.223-1.59-0.223h-0.574v-0.75q0.844 0.0703 3.64 0.0703 3.16 0 4.03-0.0703v0.75h-0.797q-1.1 0-1.61 0.141-0.504 0.141-0.586 0.34-0.082 0.188-0.082 0.668v12.8q0 0.621 0.176 0.797 0.188 0.164 0.996 0.164h1.97q1.22 0 2.1-0.363t1.35-0.82q0.469-0.457 0.773-1.31 0.316-0.867 0.41-1.42 0.105-0.551 0.199-1.54h0.598l-0.668 6.19z"/>
  <path d="m18.9 15.9q0-2.26 1.45-3.87t3.54-1.61q2.11 0 3.2 1.37 1.1 1.37 1.1 3.34 0 0.363-0.0938 0.434-0.0938 0.0703-0.504 0.0703h-6.7q0 2.45 0.727 3.6 1.01 1.61 2.71 1.61 0.234 0 0.516-0.0469t0.855-0.246q0.574-0.211 1.08-0.762 0.504-0.551 0.797-1.42 0.0703-0.34 0.305-0.328 0.316 0 0.316 0.281 0 0.211-0.234 0.691-0.223 0.469-0.656 1.03-0.434 0.562-1.28 0.984-0.832 0.422-1.84 0.422-2.11 0-3.7-1.59-1.58-1.61-1.58-3.96zm2.02-0.762h5.7q0-0.504-0.0938-1.07-0.082-0.562-0.34-1.34-0.246-0.785-0.832-1.28-0.586-0.492-1.45-0.492-0.387 0-0.809 0.164-0.41 0.164-0.914 0.562-0.504 0.398-0.855 1.3-0.352 0.902-0.398 2.14z"/>
  <path d="m29.9 18.9q0-2.04 2.4-3.12 1.44-0.691 4.42-0.867v-0.879q0-1.49-0.785-2.27-0.773-0.797-1.76-0.797-1.76 0-2.6 1.1 0.715 0.0234 0.973 0.387 0.258 0.352 0.258 0.715 0 0.48-0.305 0.797-0.293 0.305-0.797 0.305-0.48 0-0.797-0.293-0.316-0.305-0.316-0.832 0-1.17 1.05-1.95 1.07-0.773 2.58-0.773 1.97 0 3.28 1.32 0.41 0.41 0.609 0.938 0.211 0.527 0.234 0.879 0.0234 0.34 0.0234 1.02v4.79q0 0.141 0.0469 0.375t0.258 0.539q0.223 0.293 0.586 0.293 0.867 0 0.855-1.54v-1.35h0.609v1.35q0 1.28-0.68 1.78-0.668 0.492-1.29 0.492-0.797 0-1.3-0.586-0.504-0.586-0.574-1.38-0.363 0.914-1.2 1.51-0.82 0.586-1.95 0.586-0.867 0-1.69-0.223-0.809-0.211-1.49-0.809-0.668-0.609-0.668-1.52zm1.85-0.0234q0 0.891 0.633 1.46 0.633 0.574 1.52 0.574 1.01 0 1.91-0.773 0.902-0.785 0.902-2.32v-2.4q-2.66 0.0938-3.82 1.16-1.15 1.05-1.15 2.3z"/>
  <path d="m41.5 21.2v-0.738q1.28 0 1.57-0.152 0.305-0.164 0.305-0.938v-6.43q0-0.891-0.316-1.11-0.305-0.223-1.56-0.223v-0.75l3.34-0.258v2.64q0.34-1.03 1.05-1.83 0.727-0.809 1.9-0.809 0.773 0 1.27 0.434 0.504 0.434 0.504 1.03 0 0.527-0.328 0.797-0.316 0.258-0.703 0.258-0.434 0-0.738-0.27-0.293-0.281-0.293-0.762 0-0.293 0.129-0.516 0.141-0.234 0.246-0.316 0.105-0.082 0.176-0.105-0.0469-0.0234-0.258-0.0234-1.32 0-2.09 1.32-0.75 1.31-0.75 3.19v3.69q0 0.691 0.281 0.914 0.293 0.223 1.55 0.223h0.504v0.738q-0.961-0.0703-3.05-0.0703-0.293 0-0.75 0.0117t-1.05 0.0352q-0.598 0.0234-0.938 0.0234z"/>
  <path d="m51 21.2v-0.738q1.28 0 1.57-0.152 0.293-0.164 0.293-0.938v-6.43q0-0.891-0.316-1.11-0.305-0.223-1.55-0.223v-0.75l3.38-0.258v2.52q1.12-2.52 3.55-2.52 1.8 0 2.52 0.891 0.527 0.598 0.633 1.27 0.117 0.668 0.117 2.4v4.58q0.0234 0.504 0.41 0.621 0.387 0.105 1.46 0.105v0.738q-2.45-0.0703-2.7-0.0703-0.188 0-2.71 0.0703v-0.738q1.28 0 1.57-0.152 0.305-0.164 0.305-0.938v-5.59q0-1.22-0.375-1.93-0.375-0.727-1.41-0.727-1.24 0-2.24 1.04-0.996 1.04-0.996 2.8v4.41q0 0.773 0.293 0.938 0.305 0.152 1.57 0.152v0.738q-2.45-0.0703-2.68-0.0703-0.188 0-2.71 0.0703z"/>
 </g>
</svg>
